<svg xmlns="http://www.w3.org/2000/svg" xmlns:xlink="http://www.w3.org/1999/xlink" width="159" height="39" viewBox="0 0 159 39">
  <defs>
    <polygon id="conexco-a" points="0 38.795 158.492 38.795 158.492 0 0 0"/>
  </defs>
  <g fill="none" fill-rule="evenodd">
    <path fill="#1D1D1B" d="M51.434164 5.55344706C52.1673725 5.55344706 53.4107374 5.6888 55.1657659 5.95874118L55.9652872 6.06044706 55.8650645 8.12285882C54.0881829 7.92021176 52.7777517 7.81850588 51.9337706 7.81850588 50.0461166 7.81850588 48.7635668 8.27503529 48.0861213 9.18809412 47.4079223 10.1003882 47.0695763 11.7919176 47.0695763 14.2596235 47.0695763 16.7280941 47.3860692 18.4463882 48.019055 19.4152706 48.6527943 20.3849176 49.9685005 20.8689765 51.9676806 20.8689765L55.8982209 20.5646235 55.9984436 22.6614471C53.9329507 22.9765059 52.3889175 23.1348 51.3678512 23.1348 48.7688417 23.1348 46.975382 22.4580353 45.9867185 21.1052706 44.998055 19.7532706 44.5044768 17.4713882 44.5044768 14.2596235 44.5044768 11.0478588 45.0379934 8.79350588 46.1035194 7.49732941 47.1697991 6.20191765 48.9466806 5.55344706 51.434164 5.55344706zM61.3620938 14.2597765C61.3620938 16.7282471 61.6567336 18.4572471 62.2452597 19.4490706 62.8330322 20.4408941 64.0658474 20.9364235 65.9429517 20.9364235 67.8193024 20.9364235 69.0468427 20.4470118 69.6240654 19.4666588 70.2012882 18.4855412 70.4906531 16.7565412 70.4906531 14.2758353 70.4906531 11.7974235 70.1688853 10.0890706 69.5245962 9.15383529 68.8803071 8.2186 67.6866768 7.75136471 65.9429517 7.75136471 64.1992265 7.75136471 62.9995678 8.2186 62.3447289 9.15383529 61.68989 10.0890706 61.3620938 11.7913059 61.3620938 14.2597765M58.7969943 14.3102471C58.7969943 11.2223647 59.3410607 8.99095294 60.4291934 7.61601176 61.5173261 6.24107059 63.3552455 5.5536 65.9429517 5.5536 68.5306578 5.5536 70.3625488 6.24107059 71.4401318 7.61601176 72.5169611 8.99095294 73.0565062 11.2223647 73.0565062 14.3102471 73.0565062 17.3981294 72.5448427 19.6410118 71.5237763 21.0381294 70.5012028 22.4360118 68.6361555 23.1341882 65.9263735 23.1341882 63.2165915 23.1341882 61.3507905 22.4360118 60.3289706 21.0381294 59.3071507 19.6410118 58.7969943 17.3981294 58.7969943 14.3102471M79.6192123 22.7962647L77.1204256 22.7962647 77.1204256 5.89167647 79.5860559 5.89167647 79.5860559 7.07467647C81.3847905 6.06067647 83.105909 5.55367647 84.7501649 5.55367647 86.97089 5.55367647 88.4644351 6.16238235 89.2308 7.37902941 89.9971649 8.59567647 90.3799706 10.7597941 90.3799706 13.8706176L90.3799706 22.7962647 87.9150938 22.7962647 87.9150938 13.9386765C87.9150938 11.5948529 87.6867668 9.98744118 87.2323735 9.12026471 86.776473 8.25308824 85.8043877 7.81873529 84.3168711 7.81873529 83.6055156 7.81873529 82.8557289 7.92579412 82.0682645 8.13914706 81.2792929 8.35479412 80.6734351 8.56202941 80.2521981 8.76544118L79.6192123 9.06902941 79.6192123 22.7962647zM105.438401 13.3636176C105.438401 11.2897353 105.109851 9.82532353 104.455012 8.96732353 103.800173 8.11161765 102.734647 7.68338235 101.256927 7.68338235 99.7807137 7.68338235 98.6699744 8.13455882 97.9262161 9.03538235 97.1817043 9.93773529 96.7988986 11.3799706 96.7770455 13.3636176L105.438401 13.3636176zM106.337391 20.7002059L107.304955 20.5985 107.370515 22.5928529C104.839325 22.9537941 102.672856 23.1342647 100.874121 23.1342647 98.4755573 23.1342647 96.7770455 22.4299706 95.7778322 21.0213824 94.778619 19.6127941 94.2775052 17.4211471 94.2775052 14.4456765 94.2775052 8.51767647 96.5992066 5.55367647 101.241102 5.55367647 103.483681 5.55367647 105.160339 6.19067647 106.271079 7.46391176 107.382572 8.73714706 107.937188 10.7376176 107.937188 13.4653235L107.803809 15.3916176 96.8094483 15.3916176C96.8094483 17.2636176 97.143273 18.6492647 97.8101687 19.5508529 98.4755573 20.4524412 99.6367848 20.9028529 101.290837 20.9028529 102.944889 20.9028529 104.627576 20.8355588 106.337391 20.7002059L106.337391 20.7002059z"/>
    <polygon fill="#1D1D1B" points="110.036 5.892 112.768 5.892 116.833 12.519 120.897 5.892 123.629 5.892 118.332 14.276 123.596 22.796 120.864 22.796 116.833 16.204 112.768 22.796 110.036 22.796 115.267 14.344"/>
    <path fill="#1D1D1B" d="M132.591381 5.55344706C133.32459 5.55344706 134.567955 5.6888 136.322229 5.95874118L137.122504 6.06044706 137.022282 8.12285882C135.244646 7.92021176 133.934215 7.81850588 133.090988 7.81850588 131.20258 7.81850588 129.92003 8.27503529 129.243338 9.18809412 128.565139 10.1003882 128.226793 11.7919176 128.226793 14.2596235 128.226793 16.7280941 128.543286 18.4463882 129.176272 19.4152706 129.809258 20.3849176 131.125718 20.8689765 133.124144 20.8689765L137.055438 20.5646235 137.155661 22.6614471C135.089414 22.9765059 133.546135 23.1348 132.524315 23.1348 129.926059 23.1348 128.131845 22.4580353 127.143936 21.1052706 126.155272 19.7532706 125.661694 17.4713882 125.661694 14.2596235 125.661694 11.0478588 126.194457 8.79350588 127.260736 7.49732941 128.327016 6.20191765 130.103144 5.55344706 132.591381 5.55344706M142.518557 14.2597765C142.518557 16.7282471 142.812444 18.4572471 143.40097 19.4490706 143.989496 20.4408941 145.222311 20.9364235 147.099415 20.9364235 148.975766 20.9364235 150.202553 20.4470118 150.780529 19.4666588 151.357752 18.4855412 151.646363 16.7565412 151.646363 14.2758353 151.646363 11.7974235 151.324595 10.0890706 150.680306 9.15383529 150.036771 8.2186 148.84314 7.75136471 147.099415 7.75136471 145.35569 7.75136471 144.156031 8.2186 143.501192 9.15383529 142.846354 10.0890706 142.518557 11.7913059 142.518557 14.2597765M139.953458 14.3102471C139.953458 11.2223647 140.496771 8.99095294 141.585657 7.61601176 142.673036 6.24107059 144.511709 5.5536 147.099415 5.5536 149.686368 5.5536 151.518259 6.24107059 152.596595 7.61601176 153.673425 8.99095294 154.212216 11.2223647 154.212216 14.3102471 154.212216 17.3981294 153.701306 19.6410118 152.679486 21.0381294 151.657666 22.4360118 149.791865 23.1341882 147.082837 23.1341882 144.372301 23.1341882 142.5065 22.4360118 141.485434 21.0381294 140.463614 19.6410118 139.953458 17.3981294 139.953458 14.3102471"/>
    <path fill="#666" d="M47.6071621 28.0984294L45.9033754 28.0984294 45.9033754 30.6969C45.9033754 31.3209 45.9478351 31.7300176 46.0375081 31.9265471 46.1264275 32.1223118 46.3389299 32.2201941 46.6750152 32.2201941L47.6282616 32.1544294 47.681764 32.8289C47.2032569 32.9084294 46.83929 32.9481941 46.58911 32.9481941 46.0322332 32.9481941 45.6464133 32.8105471 45.4316502 32.5352529 45.2176408 32.2591941 45.110636 31.7338412 45.110636 30.9584294L45.110636 28.0984294 44.349546 28.0984294 44.349546 27.3918412 45.110636 27.3918412 45.110636 25.7278412 45.9033754 25.7278412 45.9033754 27.3918412 47.6071621 27.3918412 47.6071621 28.0984294zM49.3964773 32.8285176L48.5931882 32.8285176 48.5931882 25.0216353 49.3964773 25.0216353 49.3964773 27.6965765C49.9676716 27.4212824 50.5177664 27.2836353 51.0460081 27.2836353 51.7603777 27.2836353 52.2411455 27.4794 52.4875578 27.8709294 52.7339701 28.2616941 52.8567995 28.9575765 52.8567995 29.9578118L52.8567995 32.8285176 52.0535104 32.8285176 52.0535104 29.9792235C52.0535104 29.2259882 51.9804156 28.7090471 51.8334725 28.4306941 51.6872829 28.1515765 51.3783256 28.0116353 50.9066005 28.0116353 50.4567284 28.0116353 50.0211739 28.0957529 49.599937 28.2616941L49.3964773 28.3381647 49.3964773 32.8285176zM57.6998943 29.7950824C57.6998943 29.1282588 57.5943967 28.6572 57.384155 28.3811412 57.1731597 28.1058471 56.8302924 27.9682 56.3555531 27.9682 55.8800602 27.9682 55.5228754 28.1134941 55.2839986 28.4033176 55.0443682 28.6939059 54.9207853 29.1573176 54.9140033 29.7950824L57.6998943 29.7950824zM57.9892592 32.1542L58.2997237 32.1220824 58.3215768 32.7636706C57.5069844 32.8791412 56.8107 32.9372588 56.2319701 32.9372588 55.4603303 32.9372588 54.9140033 32.7109059 54.5922355 32.2582 54.2712213 31.8047294 54.1107142 31.0996706 54.1107142 30.1430235 54.1107142 28.2366118 54.8567332 27.2837882 56.3495246 27.2837882 57.0714299 27.2837882 57.6102213 27.4879647 57.9674062 27.8978471 58.3253445 28.3077294 58.5031834 28.9508471 58.5031834 29.8272L58.4609844 30.4473765 54.9245531 30.4473765C54.9245531 31.0492 55.0315578 31.4950235 55.2463209 31.7848471 55.4603303 32.0746706 55.8333398 32.2199647 56.3661028 32.2199647 56.8981123 32.2199647 57.4391645 32.1985529 57.9892592 32.1542L57.9892592 32.1542zM65.4676095 29.7950824C65.4676095 29.1282588 65.3621118 28.6572 65.1518701 28.3811412 64.9408749 28.1058471 64.5980076 27.9682 64.1232682 27.9682 63.6477754 27.9682 63.2905905 28.1134941 63.0517137 28.4033176 62.8120834 28.6939059 62.6885005 29.1573176 62.6817185 29.7950824L65.4676095 29.7950824zM65.7569744 32.1542L66.0674389 32.1220824 66.0892919 32.7636706C65.2746995 32.8791412 64.5784152 32.9372588 63.9996853 32.9372588 63.2280455 32.9372588 62.6817185 32.7109059 62.3599507 32.2582 62.0389365 31.8047294 61.8784294 31.0996706 61.8784294 30.1430235 61.8784294 28.2366118 62.6244483 27.2837882 64.1172398 27.2837882 64.839145 27.2837882 65.3779365 27.4879647 65.7351213 27.8978471 66.0930597 28.3077294 66.2708986 28.9508471 66.2708986 29.8272L66.2286995 30.4473765 62.6922682 30.4473765C62.6922682 31.0492 62.799273 31.4950235 63.014036 31.7848471 63.2280455 32.0746706 63.601055 32.2199647 64.133818 32.2199647 64.6658275 32.2199647 65.2068796 32.1985529 65.7569744 32.1542L65.7569744 32.1542z"/>
    <mask id="conexco-b" fill="#fff">
      <use xlink:href="#conexco-a"/>
    </mask>
    <polygon fill="#666" points="67.482 30.219 70.728 30.219 70.728 29.458 67.482 29.458" mask="url(#conexco-b)"/>
    <path fill="#666" d="M74.2210493 27.2837118C74.4569118 27.2837118 74.8570493 27.3273 75.4207081 27.4137118L75.6784237 27.4465941 75.6460209 28.1095941C75.0748265 28.0445941 74.652836 28.0117118 74.3815564 28.0117118 73.774945 28.0117118 73.3619972 28.1593 73.1442199 28.4521824 72.9264427 28.7458294 72.8171773 29.2895353 72.8171773 30.0833 72.8171773 30.8770647 72.9189071 31.4299471 73.1223668 31.7411824 73.3265801 32.0524176 73.7500777 32.2084176 74.3928597 32.2084176L75.6565706 32.1105353 75.6889735 32.7850059C75.0243384 32.8867118 74.527746 32.9379471 74.1999498 32.9379471 73.3635043 32.9379471 72.7870351 32.7192412 72.4690351 32.2848882 72.1510351 31.8505353 71.9920351 31.1164176 71.9920351 30.0833 71.9920351 29.0501824 72.1638455 28.3252412 72.5067128 27.9084765 72.8495801 27.4917118 73.4207744 27.2837118 74.2210493 27.2837118M77.413709 30.0833765C77.413709 30.8771412 77.5079033 31.4338471 77.6977991 31.7527294 77.8869412 32.0716118 78.2833109 32.2306706 78.8869081 32.2306706 79.4905052 32.2306706 79.8853678 32.0731412 80.0707422 31.7573176 80.2561166 31.4422588 80.3495573 30.8863176 80.3495573 30.0887294 80.3495573 29.2911412 80.2455668 28.7420824 80.0383393 28.4415529 79.8311118 28.1402588 79.4475526 27.9903765 78.8869081 27.9903765 78.3262635 27.9903765 77.9404436 28.1402588 77.7294483 28.4415529 77.5192066 28.7420824 77.413709 29.2896118 77.413709 30.0833765M76.5885668 30.0994353C76.5885668 29.1068471 76.7633915 28.3887882 77.1137943 27.9467882 77.4634436 27.5047882 78.0549839 27.2837882 78.8869081 27.2837882 79.7188322 27.2837882 80.3081118 27.5047882 80.6547469 27.9467882 81.001382 28.3887882 81.1746995 29.1068471 81.1746995 30.0994353 81.1746995 31.0920235 81.0096711 31.8139059 80.6818749 32.2635529 80.3533251 32.7124353 79.7527422 32.9372588 78.8816332 32.9372588 78.0105242 32.9372588 77.4099412 32.7124353 77.0813915 32.2635529 76.7528417 31.8139059 76.5885668 31.0920235 76.5885668 30.0994353M83.2854057 32.8285176L82.4821166 32.8285176 82.4821166 27.3922235 83.2741024 27.3922235 83.2741024 27.7730471C83.8098796 27.4465176 84.3313393 27.2836353 84.8392351 27.2836353 85.5031166 27.2836353 85.9673062 27.4679294 86.2318038 27.8380471 86.4676664 27.6927529 86.7728559 27.5642824 87.1473725 27.4518706 87.5226427 27.3394588 87.8534531 27.2836353 88.1390502 27.2836353 88.8534199 27.2836353 89.3334341 27.4771059 89.5798464 27.8648118 89.8262588 28.2532824 89.9498417 28.9506941 89.9498417 29.9578118L89.9498417 32.8285176 89.1457991 32.8285176 89.1457991 29.9792235C89.1457991 29.2259882 89.0749649 28.7090471 88.9317896 28.4306941 88.7886142 28.1515765 88.4849318 28.0116353 88.0207422 28.0116353 87.7856332 28.0116353 87.5422351 28.0460471 87.292055 28.1148706 87.0426284 28.1844588 86.8489649 28.2509882 86.7140787 28.3167529L86.510619 28.4146353C86.6033062 28.6532235 86.649273 29.1824 86.649273 30.0014L86.649273 32.8285176 85.8459839 32.8285176 85.8459839 30.0235765C85.8459839 29.2405176 85.7766569 28.7090471 85.6372493 28.4306941 85.4978417 28.1515765 85.1926521 28.0116353 84.720927 28.0116353 84.4926 28.0116353 84.2582445 28.0460471 84.0193678 28.1148706 83.7797374 28.1844588 83.5958701 28.2509882 83.4677659 28.3167529L83.2854057 28.4146353 83.2854057 32.8285176zM92.2427573 32.8285176L91.4394682 32.8285176 91.4394682 27.3922235 92.231454 27.3922235 92.231454 27.7730471C92.7672313 27.4465176 93.288691 27.2836353 93.7958332 27.2836353 94.4604682 27.2836353 94.9246578 27.4679294 95.1891555 27.8380471 95.425018 27.6927529 95.7302076 27.5642824 96.1047242 27.4518706 96.4807479 27.3394588 96.8108047 27.2836353 97.0964019 27.2836353 97.810018 27.2836353 98.2907858 27.4771059 98.5371981 27.8648118 98.7836104 28.2532824 98.9064398 28.9506941 98.9064398 29.9578118L98.9064398 32.8285176 98.1031507 32.8285176 98.1031507 29.9792235C98.1031507 29.2259882 98.031563 28.7090471 97.8891412 28.4306941 97.7459659 28.1515765 97.443037 28.0116353 96.9788474 28.0116353 96.7422313 28.0116353 96.4995867 28.0460471 96.2501602 28.1148706 95.9999801 28.1844588 95.8070701 28.2509882 95.6706768 28.3167529L95.4679706 28.4146353C95.5606578 28.6532235 95.6066246 29.1824 95.6066246 30.0014L95.6066246 32.8285176 94.8033355 32.8285176 94.8033355 30.0235765C94.8033355 29.2405176 94.733255 28.7090471 94.5946009 28.4306941 94.4551934 28.1515765 94.1500038 28.0116353 93.6782787 28.0116353 93.4499517 28.0116353 93.2163498 28.0460471 92.9767194 28.1148706 92.7378427 28.1844588 92.5539754 28.2509882 92.4251175 28.3167529L92.2427573 28.4146353 92.2427573 32.8285176zM103.750288 29.7950824C103.750288 29.1282588 103.644037 28.6572 103.433795 28.3811412 103.223554 28.1058471 102.880686 27.9682 102.405193 27.9682 101.930454 27.9682 101.572516 28.1134941 101.333639 28.4033176 101.094762 28.6939059 100.971179 29.1573176 100.964397 29.7950824L103.750288 29.7950824zM104.039653 32.1542L104.350118 32.1220824 104.371217 32.7636706C103.556625 32.8791412 102.86034 32.9372588 102.282364 32.9372588 101.510724 32.9372588 100.964397 32.7109059 100.642629 32.2582 100.320862 31.8047294 100.160355 31.0996706 100.160355 30.1430235 100.160355 28.2366118 100.907127 27.2837882 102.399918 27.2837882 103.12107 27.2837882 103.660615 27.4879647 104.0178 27.8978471 104.374985 28.3077294 104.553577 28.9508471 104.553577 29.8272L104.510625 30.4473765 100.974947 30.4473765C100.974947 31.0492 101.081952 31.4950235 101.295961 31.7848471 101.510724 32.0746706 101.883734 32.2199647 102.415743 32.2199647 102.948506 32.2199647 103.488805 32.1985529 104.039653 32.1542L104.039653 32.1542zM105.80704 32.8285176L105.80704 27.3922235 106.600533 27.3922235 106.600533 28.1309294C107.221462 27.6965765 107.874793 27.4098118 108.560528 27.2721647L108.560528 28.0980471C108.260613 28.1569294 107.948642 28.2479294 107.623106 28.3702824 107.298324 28.4941647 107.049651 28.6027529 106.878594 28.6968118L106.610329 28.8382824 106.610329 32.8285176 105.80704 32.8285176zM111.410923 27.2837118C111.646032 27.2837118 112.046923 27.3273 112.611336 27.4137118L112.868298 27.4465941 112.835895 28.1095941C112.2647 28.0445941 111.84271 28.0117118 111.57143 28.0117118 110.964065 28.0117118 110.551871 28.1593 110.334094 28.4521824 110.116317 28.7458294 110.007805 29.2895353 110.007805 30.0833 110.007805 30.8770647 110.108781 31.4299471 110.312994 31.7411824 110.516454 32.0524176 110.939198 32.2084176 111.582734 32.2084176L112.846445 32.1105353 112.878847 32.7850059C112.214212 32.8867118 111.71762 32.9379471 111.389824 32.9379471 110.553378 32.9379471 109.976909 32.7192412 109.658909 32.2848882 109.340909 31.8505353 109.182663 31.1164176 109.182663 30.0833 109.182663 29.0501824 109.354473 28.3252412 109.696587 27.9084765 110.039454 27.4917118 110.610648 27.2837118 111.410923 27.2837118M117.368676 29.7950824C117.368676 29.1282588 117.262425 28.6572 117.052183 28.3811412 116.841941 28.1058471 116.499074 27.9682 116.023581 27.9682 115.548842 27.9682 115.190903 28.1134941 114.952027 28.4033176 114.71315 28.6939059 114.589567 29.1573176 114.582785 29.7950824L117.368676 29.7950824zM117.658041 32.1542L117.968505 32.1220824 117.989605 32.7636706C117.175012 32.8791412 116.478728 32.9372588 115.900752 32.9372588 115.129112 32.9372588 114.582785 32.7109059 114.261017 32.2582 113.939249 31.8047294 113.778742 31.0996706 113.778742 30.1430235 113.778742 28.2366118 114.525515 27.2837882 116.018306 27.2837882 116.739458 27.2837882 117.279003 27.4879647 117.636188 27.8978471 117.993373 28.3077294 118.171965 28.9508471 118.171965 29.8272L118.129012 30.4473765 114.593335 30.4473765C114.593335 31.0492 114.700339 31.4950235 114.914349 31.7848471 115.129112 32.0746706 115.502121 32.2199647 116.034131 32.2199647 116.566894 32.2199647 117.107192 32.1985529 117.658041 32.1542L117.658041 32.1542zM125.136768 29.7950824C125.136768 29.1282588 125.030517 28.6572 124.820275 28.3811412 124.610033 28.1058471 124.267166 27.9682 123.791673 27.9682 123.316934 27.9682 122.958995 28.1134941 122.720118 28.4033176 122.481242 28.6939059 122.357659 29.1573176 122.350877 29.7950824L125.136768 29.7950824zM125.426133 32.1542L125.736597 32.1220824 125.757697 32.7636706C124.943104 32.8791412 124.24682 32.9372588 123.668844 32.9372588 122.897204 32.9372588 122.350877 32.7109059 122.029109 32.2582 121.707341 31.8047294 121.546834 31.0996706 121.546834 30.1430235 121.546834 28.2366118 122.293607 27.2837882 123.786398 27.2837882 124.50755 27.2837882 125.047095 27.4879647 125.40428 27.8978471 125.761464 28.3077294 125.940057 28.9508471 125.940057 29.8272L125.897104 30.4473765 122.361427 30.4473765C122.361427 31.0492 122.468431 31.4950235 122.682441 31.7848471 122.897204 32.0746706 123.270213 32.2199647 123.802223 32.2199647 124.334986 32.2199647 124.875284 32.1985529 125.426133 32.1542L125.426133 32.1542z" mask="url(#conexco-b)"/>
    <polygon fill="#666" points="126.615 27.392 127.494 27.392 128.801 29.523 130.109 27.392 130.987 27.392 129.284 30.088 130.976 32.828 130.097 32.828 128.801 30.709 127.494 32.828 126.615 32.828 128.297 30.111" mask="url(#conexco-b)"/>
    <path fill="#666" d="M134.276555 28.0117882C134.061792 28.0117882 133.831204 28.0484941 133.584792 28.1211412 133.339133 28.1930235 133.143963 28.2656706 133.001541 28.3383176L132.797327 28.4461412 132.797327 32.1106118C133.30447 32.1909059 133.691043 32.2306706 133.954787 32.2306706 134.533517 32.2306706 134.938929 32.0639647 135.171024 31.7297882 135.403119 31.3971412 135.518413 30.8534353 135.518413 30.0986706 135.518413 29.3454353 135.413669 28.8093765 135.202673 28.4904941 134.992432 28.1716118 134.683474 28.0117882 134.276555 28.0117882L134.276555 28.0117882zM131.994038 35.2420824L131.994038 27.3916118 132.786778 27.3916118 132.786778 27.7831412C133.329337 27.4504941 133.865114 27.2837882 134.394109 27.2837882 135.073062 27.2837882 135.565133 27.5024941 135.872583 27.9406706 136.17928 28.3796118 136.333005 29.1030235 136.333005 30.1101412 136.333005 31.1180235 136.152906 31.8414353 135.792707 32.2796118 135.431 32.7177882 134.833432 32.9372588 133.99774 32.9372588 133.562185 32.9372588 133.162048 32.8974941 132.797327 32.8172L132.797327 35.2420824 131.994038 35.2420824zM140.994569 29.7950824C140.994569 29.1282588 140.888318 28.6572 140.678076 28.3811412 140.467834 28.1058471 140.124967 27.9682 139.649474 27.9682 139.174735 27.9682 138.816796 28.1134941 138.577919 28.4033176 138.339043 28.6939059 138.21546 29.1573176 138.208678 29.7950824L140.994569 29.7950824zM141.283934 32.1542L141.594398 32.1220824 141.615498 32.7636706C140.800905 32.8791412 140.104621 32.9372588 139.526645 32.9372588 138.755005 32.9372588 138.208678 32.7109059 137.88691 32.2582 137.565142 31.8047294 137.404635 31.0996706 137.404635 30.1430235 137.404635 28.2366118 138.151408 27.2837882 139.644199 27.2837882 140.365351 27.2837882 140.904896 27.4879647 141.262081 27.8978471 141.619265 28.3077294 141.797858 28.9508471 141.797858 29.8272L141.754905 30.4473765 138.219227 30.4473765C138.219227 31.0492 138.326232 31.4950235 138.540242 31.7848471 138.755005 32.0746706 139.128014 32.2199647 139.660024 32.2199647 140.192787 32.2199647 140.733085 32.1985529 141.283934 32.1542L141.283934 32.1542zM143.05132 32.8285176L143.05132 27.3922235 143.844813 27.3922235 143.844813 28.1309294C144.465742 27.6965765 145.119074 27.4098118 145.804809 27.2721647L145.804809 28.0980471C145.504894 28.1569294 145.192922 28.2479294 144.867387 28.3702824 144.542605 28.4941647 144.293932 28.6027529 144.122875 28.6968118L143.854609 28.8382824 143.854609 32.8285176 143.05132 32.8285176zM149.533848 28.0984294L147.830062 28.0984294 147.830062 30.6969C147.830062 31.3209 147.875275 31.7300176 147.964194 31.9265471 148.053867 32.1223118 148.265616 32.2201941 148.602455 32.2201941L149.554948 32.1544294 149.609204 32.8289C149.130697 32.9084294 148.765976 32.9481941 148.515796 32.9481941 147.958919 32.9481941 147.5731 32.8105471 147.35909 32.5352529 147.144327 32.2591941 147.037322 31.7338412 147.037322 30.9584294L147.037322 28.0984294 146.276986 28.0984294 146.276986 27.3918412 147.037322 27.3918412 147.037322 25.7278412 147.830062 25.7278412 147.830062 27.3918412 149.533848 27.3918412 149.533848 28.0984294zM152.201431 28.0117882C151.423009 28.0117882 151.033422 28.2870824 151.033422 28.8384353 151.033422 29.0915529 151.122341 29.2712588 151.301687 29.3760235 151.48028 29.4815529 151.887199 29.5901412 152.523199 29.7025529 153.159199 29.8149647 153.608318 29.9724941 153.873569 30.1751412 154.137313 30.3785529 154.269185 30.7593765 154.269185 31.3168471 154.269185 31.8758471 154.092853 32.2849647 153.739436 32.5457294 153.385265 32.8072588 152.869834 32.9372588 152.190882 32.9372588 151.747791 32.9372588 151.226332 32.8867882 150.626502 32.7850824L150.304735 32.7307882 150.347687 32.0242C151.16228 32.1473176 151.77718 32.2084941 152.190882 32.2084941 152.604583 32.2084941 152.921076 32.1412 153.138853 32.0081412 153.35663 31.8735529 153.465896 31.6487294 153.465896 31.3336706 153.465896 31.0186118 153.373209 30.8044941 153.187834 30.6920824 153.001706 30.5796706 152.594033 30.4733765 151.966322 30.3709059 151.337858 30.2699647 150.891 30.1216118 150.626502 29.9258471 150.362758 29.7293176 150.230133 29.3668471 150.230133 28.8384353 150.230133 28.3092588 150.414 27.9177294 150.781735 27.6638471 151.149469 27.4099647 151.608384 27.2837882 152.158479 27.2837882 152.594033 27.2837882 153.14036 27.3342588 153.798213 27.4352L154.098128 27.4894941 154.076275 28.1861412C153.284289 28.0699059 152.658085 28.0117882 152.201431 28.0117882" mask="url(#conexco-b)"/>
    <path fill="#E50065" d="M21.8961085 29.2357765C21.8961085 30.4692471 22.8832649 31.4710118 24.0987483 31.4710118 25.3112175 31.4710118 26.3006346 30.4723059 26.3006346 29.2357765 26.3006346 27.9992471 25.3142318 27.0013059 24.0987483 27.0013059 22.8832649 27.0013059 21.8961085 27.9992471 21.8961085 29.2357765M12.3148137 29.2357765C12.3148137 30.4692471 13.3012166 31.4710118 14.5167 31.4710118 15.732937 31.4710118 16.7193398 30.4692471 16.7193398 29.2357765 16.7193398 27.9992471 15.732937 27.0013059 14.5167 27.0013059 13.3012166 27.0013059 12.3148137 27.9992471 12.3148137 29.2357765" mask="url(#conexco-b)"/>
    <path fill="#E50065" d="M36.7133261,19.9936176 C35.8474919,19.8827353 35.0630417,20.5105588 34.9567905,21.3869118 C33.9801839,29.4866765 27.1695583,35.5951471 19.1148142,35.5951471 C10.3132976,35.5951471 3.15226919,28.3289118 3.15226919,19.3979118 C3.15226919,10.4661471 10.3132976,3.19914706 19.1148142,3.19914706 C24.5705488,3.19914706 29.5741507,6.00026471 32.5054777,10.5907941 L30.4678664,11.8793235 C30.1649374,12.0705 29.9351033,12.3610882 29.8160417,12.7029118 L26.3172882,22.7534412 L13.0404114,22.7534412 L11.4496578,15.5950294 L23.335473,15.5866176 L22.4816957,17.9510882 L16.4623024,17.9510882 C15.5927005,17.9510882 14.8873735,18.6668529 14.8873735,19.5493235 C14.8873735,20.4317941 15.5927005,21.1475588 16.4623024,21.1475588 L23.5818853,21.1475588 C24.2427526,21.1475588 24.8327858,20.7292647 25.0603592,20.0991471 L27.0693355,14.5366765 C27.2464209,14.0472647 27.1755867,13.4997353 26.8809469,13.0715 C26.5863071,12.6440294 26.1047858,12.3893824 25.5901081,12.3893824 L25.5893545,12.3893824 L9.47835924,12.4000882 C9.00060569,12.4000882 8.54847299,12.6210882 8.24931185,13.0003824 C7.95090427,13.3804412 7.83787109,13.8767353 7.94336872,14.3500882 L10.2447242,24.7034412 C10.4067384,25.4322059 11.0449991,25.9499118 11.7812218,25.9499118 L27.4310417,25.9499118 C28.0979374,25.9499118 28.6932455,25.5224412 28.9155441,24.8846765 L32.6019327,14.2957941 L35.4322834,12.5056176 C35.4473545,12.4964412 35.4579043,12.4842059 35.4729754,12.4742647 C36.1692597,12.0353235 36.4277289,11.1237941 36.0396483,10.3759118 C32.7209943,3.97608824 26.2351507,-0.000382352941 19.1148142,-0.000382352941 C8.57484739,-0.000382352941 0.0001507109,8.70120588 0.0001507109,19.3979118 C0.0001507109,30.0930882 8.57484739,38.7946765 19.1148142,38.7946765 C28.7603118,38.7946765 36.9167858,31.4787353 38.0870559,21.7753824 C38.1925536,20.8990294 37.5776531,20.1006765 36.7133261,19.9936176" mask="url(#conexco-b)"/>
    <path fill="#1D1D1B" d="M156.355551,0.545082353 C155.176238,0.545082353 154.219978,1.51549412 154.219978,2.71225882 C154.219978,3.90978824 155.176238,4.8802 156.355551,4.8802 C157.535618,4.8802 158.491878,3.90978824 158.491878,2.71225882 C158.491878,1.51549412 157.535618,0.545082353 156.355551,0.545082353 M156.355551,0.927435294 C157.326129,0.927435294 158.115101,1.72808235 158.115101,2.71225882 C158.115101,3.6972 157.326129,4.49784706 156.355551,4.49784706 C155.385727,4.49784706 154.596755,3.6972 154.596755,2.71225882 C154.596755,1.72808235 155.385727,0.927435294 156.355551,0.927435294" mask="url(#conexco-b)"/>
    <path fill="#1D1D1B" d="M156.666845,2.50280588 C156.714318,2.44162941 156.739186,2.36057059 156.739186,2.26115882 C156.739186,2.16098235 156.713565,2.08145294 156.662323,2.02257059 C156.611082,1.96292353 156.537233,1.93386471 156.440025,1.93386471 L156.060233,1.93386471 L156.060233,2.59457059 L156.446807,2.59457059 C156.544769,2.59457059 156.618617,2.56398235 156.666845,2.50280588 L156.666845,2.50280588 Z M156.060233,2.95551176 L156.060233,3.65292353 L155.645025,3.65292353 L155.645025,1.57292353 L156.440025,1.57292353 C156.923053,1.57292353 157.163437,1.80157059 157.163437,2.2581 C157.163437,2.52957059 157.063214,2.72915882 156.862769,2.85762941 L157.154394,3.65292353 L156.700001,3.65292353 L156.461878,2.95551176 L156.060233,2.95551176 Z" mask="url(#conexco-b)"/>
  </g>
</svg>
