<svg xmlns="http://www.w3.org/2000/svg" viewBox="0 0 557 171"><defs><linearGradient id="a" x1="44.48%" x2="30.251%" y1="47.661%" y2="81.397%"><stop offset=".891%" stop-color="#0090D6"/><stop offset="100%" stop-color="#1FB2E8"/></linearGradient><linearGradient id="b" x1="98.157%" x2="44.453%" y1=".377%" y2="75.463%"><stop offset="0%" stop-color="#563D7C"/><stop offset="100%" stop-color="#964284"/></linearGradient><linearGradient id="c" x1="84.725%" x2="21.408%" y1="-16.179%" y2="87.981%"><stop offset="0%" stop-color="#442F61"/><stop offset="100%" stop-color="#753366"/></linearGradient><linearGradient id="d" x1="24.28%" x2="85.57%" y1="85.5%" y2="-22.658%"><stop offset="8.439%" stop-color="#E60366"/><stop offset="100%" stop-color="#964284"/></linearGradient><linearGradient id="e" x1="10.726%" x2="755.587%" y1="51.673%" y2="-20.15%"><stop offset="0%" stop-color="#563D7C"/><stop offset="100%" stop-color="#964284"/></linearGradient><linearGradient id="f" x1="-100.956%" x2="671.492%" y1="68.035%" y2="-23.797%"><stop offset="0%" stop-color="#563D7C"/><stop offset="100%" stop-color="#964284"/></linearGradient><linearGradient id="g" x1="-209.271%" x2="563.177%" y1="80.929%" y2="-10.904%"><stop offset="0%" stop-color="#563D7C"/><stop offset="100%" stop-color="#964284"/></linearGradient><linearGradient id="h" x1="-478.98%" x2="682.765%" y1="83.821%" y2="8.597%"><stop offset="0%" stop-color="#563D7C"/><stop offset="100%" stop-color="#964284"/></linearGradient><linearGradient id="i" x1="-495.801%" x2="488.42%" y1="100.859%" y2="9.366%"><stop offset="0%" stop-color="#563D7C"/><stop offset="100%" stop-color="#964284"/></linearGradient><linearGradient id="j" x1="-717.315%" x2="444.43%" y1="99.255%" y2="24.031%"><stop offset="0%" stop-color="#563D7C"/><stop offset="100%" stop-color="#964284"/></linearGradient><linearGradient id="k" x1="-963.434%" x2="371.866%" y1="118.722%" y2="26.376%"><stop offset="0%" stop-color="#563D7C"/><stop offset="100%" stop-color="#964284"/></linearGradient><linearGradient id="l" x1="-702.458%" x2="175.254%" y1="130.08%" y2="38.924%"><stop offset="0%" stop-color="#563D7C"/><stop offset="100%" stop-color="#964284"/></linearGradient><linearGradient id="m" x1="-727.162%" x2="45.287%" y1="115.653%" y2="47.308%"><stop offset="0%" stop-color="#563D7C"/><stop offset="100%" stop-color="#964284"/></linearGradient></defs><g fill="none"><path fill="url(#a)" d="M89.826 6.37L30.792 54v21.17" transform="translate(460.898)"/><path fill="url(#b)" d="M95.416.588L.786 40.673 80.41 70.368" transform="translate(460.898)"/><path fill="url(#c)" d="M95.416.588l-78.06 46.26 27.46 10.29" transform="translate(460.898)"/><path fill="url(#d)" d="M10.297 46.26l29.615 11.27L95.416.588" transform="translate(460.898)"/><g><path fill="url(#e)" d="M48.934 4.9c4.314 3.04 6.472 7.155 6.472 12.35 0 3.625-1.08 6.762-3.138 9.408-2.06 2.646-4.903 4.508-8.532 5.488 4.413.882 7.845 2.744 10.297 5.88 2.55 3.04 3.726 6.763 3.726 11.27 0 5.783-2.256 10.39-6.865 13.722-4.61 3.332-10.787 4.998-18.632 4.998H.098V.49h31.086c7.55-.196 13.435 1.372 17.75 4.41zm-11.67 20.68c1.667-1.274 2.452-3.137 2.452-5.587 0-2.352-.785-4.116-2.452-5.39-1.667-1.274-3.922-1.862-6.766-1.862H15.494v14.8h15.004c2.844 0 5.1-.686 6.766-1.96zm1.667 27.637c2.06-1.47 3.04-3.43 3.04-5.978 0-2.45-1.078-4.41-3.04-5.783-2.058-1.372-4.902-2.06-8.53-2.06H15.396v15.977H30.4c3.726 0 6.472-.687 8.53-2.157z" transform="translate(0 47.043)"/><path fill="url(#f)" d="M106.595 18.72c4.217 2.155 7.453 5.292 9.806 9.212 2.355 4.018 3.433 8.624 3.433 13.917 0 5.193-1.176 9.8-3.432 13.818-2.352 4.018-5.588 7.154-9.805 9.31-4.217 2.254-9.022 3.332-14.513 3.332-5.492 0-10.395-1.078-14.612-3.332-4.217-2.254-7.453-5.292-9.806-9.31-2.354-4.02-3.432-8.625-3.432-13.82 0-5.292 1.176-9.898 3.432-13.916 2.353-4.018 5.59-7.057 9.806-9.213 4.217-2.157 9.12-3.235 14.612-3.235 5.393 0 10.296 1.078 14.513 3.234zM82.667 31.753c-2.45 2.646-3.628 6.076-3.628 10.29 0 4.215 1.176 7.645 3.627 10.29 2.452 2.647 5.59 3.922 9.415 3.922 3.824 0 6.864-1.275 9.316-3.92 2.45-2.647 3.628-6.077 3.628-10.29 0-4.216-1.177-7.646-3.628-10.292-2.452-2.646-5.492-3.92-9.316-3.92-3.923 0-7.06 1.274-9.415 3.92z" transform="translate(0 47.043)"/><path fill="url(#g)" d="M167.59 18.72c4.217 2.155 7.453 5.292 9.807 9.212 2.353 4.018 3.432 8.624 3.432 13.917 0 5.193-1.178 9.8-3.433 13.818-2.354 4.018-5.59 7.154-9.807 9.31-4.216 2.156-9.022 3.332-14.513 3.332-5.492 0-10.395-1.078-14.612-3.332-4.216-2.254-7.452-5.292-9.806-9.31-2.354-4.02-3.433-8.625-3.433-13.82 0-5.292 1.177-9.898 3.432-13.916 2.353-4.018 5.59-7.057 9.805-9.213 4.217-2.157 9.12-3.235 14.612-3.235 5.49 0 10.297 1.078 14.513 3.234zm-23.927 13.034c-2.452 2.646-3.628 6.076-3.628 10.29 0 4.215 1.176 7.645 3.628 10.29 2.45 2.647 5.59 3.922 9.414 3.922s6.864-1.275 9.316-3.92c2.452-2.647 3.628-6.077 3.628-10.29 0-4.216-1.175-7.646-3.627-10.292s-5.492-3.92-9.316-3.92c-3.825 0-6.963 1.274-9.414 3.92z" transform="translate(0 47.043)"/><path fill="url(#h)" d="M222.898 64.978c-1.96 1.176-4.02 2.058-6.374 2.646-2.354.588-4.707.882-7.06.882-4.806 0-8.728-1.372-11.768-4.116-3.04-2.744-4.51-6.762-4.51-11.86V28.52h-7.258V18.327h7.257V4.017h14.807v14.31h14.122v10.29h-14.122v21.366c0 4.018 1.57 5.98 4.707 5.98 2.157 0 4.608-.688 7.256-1.962l2.942 10.978z" transform="translate(0 47.043)"/><path fill="url(#i)" d="M256.142 27.442c-2.746-.882-5.198-1.274-7.453-1.274-1.766 0-3.237.294-4.316.98-1.08.686-1.667 1.568-1.667 2.94 0 1.372.784 2.548 2.255 3.234 1.47.784 3.923 1.666 7.257 2.646 3.627 1.078 6.667 2.156 9.02 3.234 2.354 1.08 4.414 2.647 6.18 4.705 1.764 2.058 2.647 4.802 2.647 8.232 0 5.096-1.962 9.114-5.982 11.956-3.923 2.842-9.022 4.312-15.2 4.312-4.217 0-8.336-.588-12.258-1.862-3.923-1.274-7.355-3.038-10.2-5.39l4.806-9.997c2.648 2.057 5.59 3.625 8.826 4.802 3.235 1.078 6.275 1.666 9.217 1.666 1.96 0 3.628-.294 4.805-.98 1.177-.686 1.765-1.667 1.765-3.04 0-1.47-.784-2.645-2.255-3.43-1.47-.88-3.923-1.763-7.257-2.743-3.53-.98-6.472-2.058-8.825-3.038-2.354-.98-4.315-2.548-5.982-4.704-1.667-2.06-2.55-4.803-2.55-8.135 0-5.096 1.96-9.115 5.786-11.957 3.824-2.84 8.727-4.213 14.71-4.213 3.53 0 7.06.49 10.59 1.47 3.53.98 6.766 2.45 9.61 4.312l-5.1 10.094c-2.843-1.666-5.687-2.94-8.432-3.822z" transform="translate(0 47.043)"/><path fill="url(#j)" d="M312.136 64.978c-1.962 1.176-4.02 2.058-6.374 2.646-2.354.588-4.707.882-7.06.882-4.806 0-8.73-1.372-11.77-4.116-3.04-2.744-4.51-6.762-4.51-11.86V28.52h-7.256V18.327h7.257V4.017h14.807v14.31h14.12v10.29h-14.12v21.366c0 4.018 1.57 5.98 4.707 5.98 2.158 0 4.61-.688 7.257-1.962l2.942 10.978z" transform="translate(0 47.043)"/><path fill="url(#k)" d="M343.026 18.033c2.942-1.666 6.276-2.548 10.1-2.646v14.015c-.49-.098-1.275-.098-2.353-.098-4.61 0-8.14 1.274-10.885 3.724-2.648 2.45-4.02 5.782-4.02 9.9v24.99H320.96V16.073h14.907v9.31c1.863-3.234 4.217-5.684 7.16-7.35z" transform="translate(0 47.043)"/><path fill="url(#l)" d="M389.704 67.82v-6.076c-1.765 2.156-4.02 3.822-6.767 4.998-2.745 1.176-5.98 1.764-9.512 1.764-5.49 0-9.806-1.47-13.042-4.508-3.236-3.038-4.805-6.86-4.805-11.76 0-4.9 1.765-8.723 5.197-11.467 3.432-2.744 8.336-4.116 14.612-4.214h14.317v-.98c0-2.744-.883-4.9-2.746-6.37-1.863-1.47-4.51-2.254-8.04-2.254-4.806 0-10.004 1.47-15.397 4.508l-4.608-10.193c4.12-2.058 7.943-3.528 11.57-4.508 3.63-.98 7.552-1.47 11.867-1.47 6.962 0 12.355 1.665 16.18 4.9 3.824 3.233 5.785 7.84 5.883 13.72l.098 33.812h-14.806v.098zm-4.217-12.152c2.256-1.47 3.628-3.333 4.02-5.587v-4.605h-11.67c-2.94 0-5 .49-6.373 1.372-1.373.98-2.06 2.45-2.06 4.508 0 1.96.687 3.626 2.158 4.803 1.47 1.176 3.432 1.764 5.982 1.764 3.04 0 5.688-.784 7.943-2.254z" transform="translate(0 47.043)"/><path fill="url(#m)" d="M461.584 18.817c3.727 2.254 6.57 5.39 8.63 9.41 2.06 4.017 3.04 8.72 3.04 14.014 0 5.195-.98 9.8-2.942 13.722-1.96 3.92-4.805 7.056-8.433 9.212-3.63 2.156-7.847 3.234-12.652 3.234-3.628 0-6.766-.686-9.61-2.058-2.844-1.372-5.197-3.43-7.06-5.978v26.265h-14.906V16.073h14.808v7.645c1.863-2.647 4.216-4.607 6.962-5.98 2.844-1.37 5.982-2.057 9.414-2.057 4.805-.195 9.022.883 12.748 3.137zm-6.962 33.224c2.353-2.645 3.53-6.075 3.53-10.387 0-4.215-1.177-7.645-3.53-10.29-2.354-2.647-5.492-4.02-9.218-4.02-3.825 0-6.865 1.373-9.316 4.02-2.452 2.645-3.628 6.075-3.628 10.29 0 4.312 1.176 7.742 3.628 10.388 2.45 2.647 5.49 3.922 9.316 3.922 3.726.098 6.864-1.177 9.218-3.92z" transform="translate(0 47.043)"/></g><g fill="#189EFF"><path d="M9.316 140.05c-.49.393-.686.98-.686 1.765v1.667h4.805v4.018H8.63v15.29H2.942V147.5H.196v-4.018h2.746v-1.96c0-1.47.294-2.745.98-3.725.687-1.078 1.57-1.862 2.648-2.352 1.177-.49 2.354-.784 3.727-.784 1.274 0 2.647.295 4.02.785l-.882 4.508c-.393-.196-.785-.294-1.177-.392-.392-.097-.785-.195-1.177-.195-.685.098-1.274.294-1.764.686zm21.182 3.628c1.667.882 2.942 2.058 3.824 3.626.883 1.568 1.373 3.332 1.373 5.39s-.49 3.822-1.373 5.39c-.882 1.57-2.157 2.745-3.824 3.627-1.667.883-3.53 1.275-5.688 1.275-2.157 0-4.02-.392-5.688-1.274-1.667-.88-2.942-2.057-3.824-3.625-.883-1.57-1.373-3.333-1.373-5.39 0-2.06.49-3.823 1.373-5.39.882-1.57 2.157-2.745 3.824-3.627 1.667-.882 3.53-1.274 5.688-1.274 2.157 0 4.12.49 5.688 1.274zm-9.316 5.096c-.98.98-1.373 2.352-1.373 4.018s.49 3.038 1.372 4.018c.98.98 2.157 1.57 3.628 1.57 1.47 0 2.648-.492 3.628-1.57.98-.98 1.373-2.352 1.373-4.018s-.49-3.038-1.372-4.018c-.98-.98-2.157-1.568-3.628-1.568-1.47 0-2.648.588-3.628 1.568zm26.87-5.39c1.176-.686 2.45-.98 3.922-.98v5.488h-.883c-1.764 0-3.235.49-4.216 1.47-1.078.98-1.57 2.254-1.57 3.822v9.703H39.52v-20.19h5.785v3.627c.785-1.274 1.667-2.254 2.746-2.94zm25.496 3.724c-1.08-.294-2.06-.49-2.942-.49-.687 0-1.275.098-1.667.392-.394.294-.688.588-.688 1.176s.294.98.883 1.274c.588.294 1.47.686 2.844.98 1.47.392 2.646.882 3.53 1.274.88.392 1.764.98 2.45 1.862.687.784.98 1.862.98 3.234 0 1.96-.783 3.53-2.352 4.705-1.57 1.176-3.53 1.666-5.884 1.666-1.667 0-3.236-.195-4.805-.685-1.57-.49-2.845-1.176-4.022-2.058l1.863-3.92c.982.783 2.16 1.47 3.433 1.862 1.275.39 2.452.685 3.63.685.783 0 1.372-.098 1.862-.392.49-.294.686-.686.686-1.177 0-.588-.293-.98-.88-1.372-.59-.294-1.57-.686-2.845-1.078-1.373-.392-2.55-.784-3.432-1.176-.883-.392-1.667-.98-2.354-1.862-.687-.784-.98-1.862-.98-3.136 0-1.96.783-3.528 2.254-4.704 1.47-1.176 3.432-1.666 5.688-1.666 1.373 0 2.746.196 4.118.588 1.373.392 2.648.98 3.727 1.666l-1.96 3.92c-.982-.784-2.06-1.176-3.14-1.568zm27.653-2.646c1.374 1.372 2.06 3.332 2.06 5.684v12.74h-5.785V151.91c0-1.274-.392-2.254-1.08-3.038-.685-.784-1.666-1.078-2.94-1.078-1.472 0-2.55.49-3.433 1.47-.882.98-1.275 2.156-1.275 3.724v9.997h-5.785v-27.932h5.785v11.27c1.373-2.45 3.727-3.723 6.963-3.82 2.353-.1 4.12.587 5.49 1.96zm21.77-.784c1.67.882 2.943 2.058 3.826 3.626s1.373 3.332 1.373 5.39-.49 3.822-1.374 5.39c-.883 1.57-2.157 2.745-3.825 3.627-1.666.883-3.53 1.275-5.686 1.275-2.158 0-4.02-.392-5.688-1.274-1.667-.88-2.942-2.057-3.824-3.625-.883-1.57-1.373-3.333-1.373-5.39 0-2.06.49-3.823 1.372-5.39.882-1.57 2.157-2.745 3.824-3.627 1.667-.882 3.53-1.274 5.688-1.274 2.157 0 4.118.49 5.687 1.274zm-9.315 5.096c-.98.98-1.372 2.352-1.372 4.018s.49 3.038 1.372 4.018c.98.98 2.158 1.57 3.63 1.57 1.47 0 2.647-.492 3.627-1.57.98-.98 1.373-2.352 1.373-4.018s-.49-3.038-1.373-4.018c-.98-.98-2.157-1.568-3.628-1.568-1.47 0-2.648.588-3.63 1.568zm35.696-4.998c1.47.882 2.55 2.058 3.335 3.626.784 1.568 1.176 3.43 1.176 5.488 0 2.058-.39 3.822-1.175 5.39-.785 1.57-1.864 2.745-3.334 3.627-1.372.882-3.04 1.274-4.903 1.274-1.373 0-2.647-.293-3.726-.783-1.078-.49-2.058-1.274-2.745-2.352v10.192h-5.786v-27.54h5.785v2.94c.687-.98 1.667-1.763 2.746-2.35 1.08-.49 2.354-.785 3.63-.785 1.96-.098 3.628.392 5 1.274zm-2.647 12.936c.882-1.078 1.373-2.352 1.373-4.018s-.49-2.94-1.373-4.018c-.883-1.078-2.158-1.568-3.63-1.568-1.47 0-2.646.49-3.627 1.568-.98 1.078-1.373 2.352-1.373 4.018s.49 3.038 1.373 4.018c.98.98 2.158 1.57 3.628 1.57 1.47 0 2.648-.492 3.63-1.57zM154.156 142.698h5.883l4.51 14.504 4.413-14.504h5.688l4.414 14.504 4.413-14.504h5.687l-7.354 20.19h-5.786l-4.413-13.33-4.314 13.33h-5.786M202.99 162.887v-2.352c-.685.882-1.568 1.47-2.647 1.96-1.078.49-2.353.686-3.726.686-2.157 0-3.824-.587-5.1-1.763-1.274-1.176-1.862-2.646-1.862-4.607 0-1.862.686-3.43 2.06-4.41 1.372-1.078 3.235-1.568 5.687-1.666h5.59v-.392c0-1.078-.393-1.96-1.08-2.548-.686-.588-1.765-.882-3.138-.882-1.863 0-3.922.588-5.98 1.764l-1.767-4.018c1.57-.784 3.138-1.372 4.51-1.764 1.374-.392 2.943-.588 4.61-.588 2.746 0 4.805.686 6.276 1.96 1.47 1.274 2.256 3.038 2.256 5.39v13.23h-5.69zm-1.568-4.802c.883-.59 1.373-1.275 1.57-2.157v-1.764h-4.512c-1.176 0-1.96.196-2.55.588-.588.392-.784.98-.784 1.764s.294 1.372.883 1.863c.587.49 1.372.685 2.352.685 1.08-.098 2.158-.392 3.04-.98zm20.79-14.7c1.176-.687 2.45-.98 3.922-.98v5.487h-.882c-1.766 0-3.237.49-4.217 1.47-1.08.98-1.57 2.254-1.57 3.822v9.703h-5.785v-20.19h5.786v3.627c.686-1.274 1.667-2.254 2.746-2.94zm23.24 1.86c1.668 1.863 2.55 4.51 2.55 7.84v1.373H233.49c.293 1.274.98 2.254 1.862 3.038.883.687 2.06 1.08 3.334 1.08.98 0 1.863-.197 2.746-.59.883-.392 1.667-.882 2.354-1.568l3.04 3.04c-.98 1.175-2.256 2.057-3.727 2.645-1.472.588-3.14.882-4.904.882-2.157 0-4.02-.392-5.59-1.274-1.57-.88-2.844-2.057-3.726-3.625-.883-1.57-1.275-3.333-1.275-5.39 0-2.06.392-3.823 1.275-5.39.882-1.57 2.06-2.745 3.726-3.627 1.57-.882 3.433-1.274 5.394-1.274 3.334 0 5.786.98 7.453 2.842zm-2.94 5.88c-.1-1.37-.492-2.35-1.276-3.233-.785-.784-1.863-1.176-3.236-1.176-1.275 0-2.256.392-3.138 1.176-.883.784-1.373 1.862-1.57 3.234h9.22z"/></g></g></svg>