<svg xmlns="http://www.w3.org/2000/svg" width="167" height="37" viewBox="0 0 167 37">
  <g fill="#189EFF" fill-rule="evenodd">
    <path fill-rule="nonzero" d="M5.92654297,6.84333333 C4.40005859,6.17666667 3.14429687,5.55333333 3.14429687,4.53666667 C3.14429687,3.82333333 3.93363281,3.14666667 5.26441406,3.14666667 C6.40120041,3.16402694 7.52116568,3.42999113 8.54896484,3.92666667 C8.71947381,4.02677814 8.92282526,4.05062633 9.11109267,3.99259061 C9.29936008,3.93455489 9.45588932,3.7997691 9.54378906,3.62 L10.0754492,2.53333333 C10.2580456,2.11915405 10.1199269,1.63077089 9.74927734,1.38 C8.38735033,0.582367666 6.83682251,0.183341693 5.26767578,0.226666667 C1.54931641,0.226666667 0.0293554687,2.53333333 0.0293554687,4.5 C0.0293554687,7.07666667 1.98638672,8.36666667 4.33808594,9.45333333 C6.46146484,10.4366667 7.62263672,11.12 7.62263672,12.1666667 C7.62263672,13.05 6.89201172,13.6933333 5.59710937,13.6933333 C3.77054687,13.6933333 2.67787109,13.05 1.78089844,12.54 C1.62586731,12.4215909 1.42889314,12.3761093 1.23910736,12.4148999 C1.04932158,12.4536904 0.884616342,12.5730961 0.786074219,12.7433333 L0.0880664062,14.2033333 C-0.0406888714,14.503583 0.0733710335,14.8547147 0.352265625,15.0166667 C1.83813199,16.0564516 3.59731381,16.6119471 5.39814453,16.61 C8.81642578,16.61 10.8745703,14.4733333 10.8745703,12.03 C10.8713086,9.11666667 8.74792969,8.06666667 5.92654297,6.84333333 Z" transform="translate(43.055 12)"/>
    <g fill-rule="nonzero">
      <path d="M28.6281055,33 C27.0722656,31.8 24.7694922,30.8866667 22.33625,29.9233333 C19.4398437,28.7766667 16.1389844,27.4733333 13.6894336,25.47 C10.8974023,23.1966667 9.53726562,20.3333333 9.53726562,16.7066667 C9.48901113,13.558912 10.906614,10.5748541 13.3567383,8.66666667 C16.1585547,6.41333333 20.4053125,5.22 25.6338477,5.22 C27.0060055,5.21474542 28.3769218,5.30495394 29.7370898,5.49 C29.8488413,5.50467325 29.9569624,5.44344614 30.0040355,5.33883326 C30.0511086,5.23422039 30.0262165,5.11048365 29.9425781,5.03333333 C23.9930967,-0.43313365 15.2206642,-1.21270254 8.43719714,3.1222413 C1.6537301,7.45718514 -1.50095333,15.8587234 0.70357609,23.7183849 C2.90810551,31.5780465 9.93893044,36.9958567 17.9394531,37 C21.7856239,37.017573 25.5341155,35.7628594 28.6248437,33.4233333 C28.6900366,33.3740219 28.7287062,33.2962196 28.7292187,33.2133333 C28.7299932,33.1299803 28.6925838,33.0510523 28.6281055,33 Z"/>
      <path d="M35.823457,16.98 C35.8173927,16.9100514 35.7845751,16.8453707 35.7321289,16.8 C31.9876758,13.6233333 28.9575391,12.3333333 25.2750586,12.3333333 C23.3180273,12.3333333 21.8045898,12.7366667 20.7999805,13.53 C19.9466214,14.1811607 19.4514869,15.2117752 19.4691992,16.3 C19.4691992,19.45 23.2364844,20.8866667 27.6006641,22.55 C29.8479883,23.4066667 32.1670703,24.2933333 34.3067578,25.5033333 C34.34444,25.525504 34.3872235,25.53701 34.4307031,25.5366667 C34.4607426,25.5359673 34.490477,25.53034 34.5187695,25.52 C34.5892476,25.4940877 34.6452051,25.4381183 34.6720703,25.3666667 C35.4888863,23.231731 35.9060085,20.9589884 35.9017383,18.6666667 C35.8984766,18.1333333 35.8789062,17.5633333 35.823457,16.98 Z"/>
    </g>
    <path fill-rule="nonzero" d="M138.988359 28.42C139.418163 28.395634 139.756768 28.0365084 139.764648 27.5966667L139.764648 19.64C139.764648 15.57 139.278652 12.4166667 134.15123 12.4166667 132.278293 12.4136364 130.417446 12.7232684 128.642187 13.3333333 128.44406 13.3814579 128.274921 13.5126204 128.176232 13.694668 128.077543 13.8767156 128.058429 14.0928178 128.123574 14.29L128.449746 15.6233333C128.554121 16.0833333 128.863984 16.4033333 129.34998 16.29 130.797272 15.8210623 132.300988 15.558584 133.818535 15.51 135.827754 15.51 136.450742 16.68 136.382246 19.2633333 135.33439 18.9523159 134.250672 18.7852923 133.159668 18.7666667 129.036855 18.7666667 126.750391 21.0333333 126.750391 24.0433333 126.750391 27.4433333 128.860723 28.5933333 131.874551 28.5933333 134.333887 28.5933333 136.86498 28.5633333 137.918516 28.4933333L138.988359 28.42zM136.339844 25.5333333C135.853848 26.3466667 134.121875 26.1433333 132.634531 26.1133333 130.971055 26.0766667 130.139316 25.4833333 130.139316 24.03 130.142578 22.3333333 131.551641 21.3333333 133.423867 21.3333333 134.421426 21.3165827 135.411716 21.5094589 136.33332 21.9L136.33332 25.5333333 136.33332 25.5333333 136.339844 25.5333333zM165.147344 12.23C166.149865 12.2263212 166.95999 11.3934413 166.957592 10.3689048 166.955195 9.34436837 166.141181 8.5154581 165.138654 8.51667996 164.136127 8.51790181 163.324049 9.34879393 163.324043 10.3733333 163.324907 10.8666362 163.51749 11.3393838 163.859426 11.6875765 164.201361 12.0357692 164.664639 12.2308848 165.147344 12.23L165.147344 12.23zM165.147344 8.79C165.775426 8.78324308 166.345349 9.16469628 166.5903 9.75578028 166.835252 10.3468643 166.706755 11.0305996 166.264966 11.486892 165.823176 11.9431844 165.155528 12.0817306 164.574583 11.8376694 163.993639 11.5936082 163.614371 11.0152409 163.614336 10.3733333 163.614289 9.50535008 164.298056 8.79913666 165.147344 8.79L165.147344 8.79z"/>
    <path fill-rule="nonzero" d="M164.527617 11.3133333L164.697227 11.3133333C164.724248 11.3133333 164.746152 11.2909476 164.746152 11.2633333L164.746152 10.5966667 165.144082 10.5966667 165.470254 11.2966667C165.479041 11.319483 165.50192 11.3332363 165.525703 11.33L165.721406 11.33C165.739985 11.3317158 165.757902 11.3224851 165.767602 11.3062003 165.777301 11.2899155 165.777095 11.269411 165.76707 11.2533333L165.408281 10.5866667C165.656659 10.5060401 165.822035 10.2661585 165.812734 10 165.811876 9.84647503 165.751149 9.69963754 165.644006 9.5920198 165.536864 9.48440206 165.392153 9.42488928 165.241934 9.42666667L164.527617 9.42666667C164.500596 9.42666667 164.478691 9.44905243 164.478691 9.47666667L164.478691 11.2533333C164.475715 11.2682193 164.479523 11.2836808 164.489041 11.2953528 164.498559 11.3070248 164.512753 11.3136409 164.527617 11.3133333L164.527617 11.3133333zM164.752676 9.69666667L165.219102 9.69666667C165.399241 9.69666667 165.545273 9.84590508 165.545273 10.03 165.545273 10.2140949 165.399241 10.3633333 165.219102 10.3633333L164.752676 10.3633333 164.752676 9.69666667zM64.1221289 12.23C62.5099752 12.2637107 60.9530179 12.8362409 59.6894531 13.86L59.6894531 6.86C59.6626605 6.45951659 59.3507074 6.14071423 58.9588281 6.11333333L57.0800781 6.11333333C56.6829722 6.12872834 56.3645174 6.4541752 56.3494531 6.86L56.3494531 27.86C56.3494373 28.2734649 56.6755121 28.6096744 57.0800781 28.6133333L58.9066406 28.6133333C59.1112713 28.6369142 59.3157539 28.5678204 59.4662982 28.4242273 59.6168426 28.2806342 59.6983769 28.0769178 59.6894531 27.8666667L59.6894531 17.7266667C60.5308293 16.2865455 62.063729 15.4186404 63.7046289 15.4533333 65.6975391 15.4533333 66.7575977 16.98 66.7575977 19.5566667L66.7575977 27.87C66.76114 28.2808638 67.0861861 28.6130465 67.4882227 28.6166667L69.3474023 28.6166667C69.7445083 28.6012717 70.0629631 28.2758248 70.0780273 27.87L70.0780273 19.6266667C70.0617187 15.3533333 68.47 12.23 64.1221289 12.23zM102.998555 19.79C102.815898 14.4566667 100.633809 12.23 95.6075 12.23 93.6689225 12.2713341 91.7450567 12.5842511 89.889707 13.16 89.367832 13.39 88.9829492 13.6633333 88.9829492 14.0366667L88.9829492 33.98C88.9864916 34.3908638 89.3115376 34.7230465 89.7135742 34.7266667L91.2531055 34.7266667C91.4588675 34.7498066 91.6643839 34.6810102 91.816874 34.5379455 91.9693642 34.3948809 92.0539707 34.1914873 92.0489648 33.98L92.0489648 28.3333333C93.6518762 28.5647938 95.2713852 28.6540157 96.8893555 28.6 100.438105 28.4866667 102.81916 25.8533333 103.018125 21.4066667 103.051215 20.7404288 103.051215 20.0729045 103.018125 19.4066667L103.018125 19.7733333 102.998555 19.79zM99.7922852 21.4133333C99.7237891 24.43 98.865957 25.7633333 96.3805273 25.9033333 95.1508594 25.9733333 92.2479297 25.6233333 92.2479297 25.6233333 92.1408505 25.6126952 92.0561127 25.5260969 92.0457031 25.4166667L92.0457031 15.8366667C92.0453112 15.7434164 92.1146715 15.6653002 92.2055273 15.6566667 93.321361 15.381367 94.4631077 15.2304858 95.6107617 15.2066667 98.6376367 15.2066667 99.7042187 15.66 99.8020703 19.5766667 99.8085937 20.0933333 99.8085937 20.8166667 99.7922852 21.4133333L99.7922852 21.4133333zM124.979277 12.57L123.586523 12.57C123.188594 12.57 122.608008 12.57 122.425352 13.0466667L119.969277 22.0666667 119.904043 22.0666667 115.791016 12.6033333C115.671842 12.3512539 115.411254 12.2021207 115.138672 12.23L114.90709 12.23C114.645153 12.2231719 114.401738 12.36753 114.277578 12.6033333L110.112363 22.0333333 110.047129 22.0333333 107.52582 13.0333333C107.434256 12.7453877 107.169707 12.552082 106.873477 12.5566667L104.880566 12.5566667C104.661865 12.5229063 104.444597 12.6260085 104.328715 12.8185408 104.212834 13.011073 104.220784 13.2557473 104.348906 13.44L108.830508 28.1933333C108.924667 28.460048 109.183877 28.6274986 109.46002 28.6L109.658984 28.6C109.910713 28.6243399 110.148648 28.4784441 110.246094 28.24L114.959277 17.5733333 115.024512 17.5733333 119.705078 28.24C119.836899 28.4795293 120.088701 28.6236346 120.357422 28.6133333L120.491152 28.6133333C120.784068 28.6399338 121.06234 28.4778096 121.18916 28.2066667L125.576172 13.4533333C125.811016 12.9766667 125.510938 12.57 124.979277 12.57zM149.461738 12.4166667C149.380195 12.4166667 149.305176 12.4166667 149.223633 12.4166667 149.089902 12.4166667 148.959434 12.4166667 148.81918 12.4166667 148.02332 12.4166667 147.260078 12.4433333 146.535977 12.48L146.535977 12.48C145.159531 12.5366667 144.344102 12.6433333 143.763516 12.71 143.763516 12.71 143.39168 12.7466667 142.957871 12.8033333 142.711717 12.8231436 142.483693 12.9432625 142.325098 13.1366667 142.232041 13.2362626 142.180569 13.3689629 142.181582 13.5066667L142.181582 27.8633333C142.185124 28.2741971 142.51017 28.6063798 142.912207 28.61L144.438691 28.61C145.068203 28.61 145.502012 28.5433333 145.502012 27.8633333L145.502012 18.1566667 145.502012 18.1566667 145.502012 15.93C145.542051 15.8143534 145.625332 15.7196534 145.733594 15.6666667 146.108691 15.4366667 147.008926 15.27 148.81918 15.27L149.239941 15.27C149.678713 15.3049091 150.110357 15.4036843 150.521797 15.5633333 150.691099 15.6572806 150.892377 15.669947 151.071679 15.5979374 151.250981 15.5259278 151.389969 15.376607 151.451387 15.19L152.247246 13.8566667C152.746289 12.8233333 150.922988 12.4166667 149.461738 12.4166667zM159.967734 12.23C155.355664 12.23 152.322266 16 152.322266 20.4033333 152.322266 24.88 155.342617 28.61 159.987305 28.61 162.54123 28.61 164.553711 27.66 165.662695 26.6766667 166.125859 26.27 165.988867 25.9633333 165.72793 25.6266667L164.830957 24.2033333C164.566758 23.7966667 164.26668 23.8966667 163.933984 24.1366667 162.869487 25.0061018 161.545688 25.4766632 160.183008 25.47 157.495352 25.47 155.636172 23.3 155.616602 21.1966667L166.204141 21.1966667C166.568194 21.186549 166.867677 20.9005131 166.902148 20.53 166.934766 20.26 166.967383 19.7166667 166.967383 19.4433333 166.967383 15.25 163.950293 12.23 159.967734 12.23zM155.786211 18.6666667C156.017793 16.7 157.479043 15.1066667 159.9025 15.1066667 162.159609 15.1066667 163.620859 16.7733333 163.686094 18.6666667L155.786211 18.6666667zM86.318125 17.0766667C86.0035601 16.1224407 85.5093708 15.2403197 84.8633984 14.48 84.2463685 13.7647063 83.4838157 13.1958775 82.6291211 12.8133333 80.6335246 12.0352209 78.427452 12.0352209 76.4318555 12.8133333 75.5776332 13.196717 74.8152464 13.765422 74.1975781 14.48 73.5492753 15.2397561 73.0528488 16.1219146 72.7363281 17.0766667 72.381426 18.150108 72.2060992 19.2770028 72.2177148 20.41 72.2007709 21.5564635 72.3761801 22.6974173 72.7363281 23.7833333 73.0531924 24.7314844 73.5472503 25.6077104 74.1910547 26.3633333 74.8080846 27.078627 75.5706374 27.6474558 76.425332 28.03 78.4217661 28.8034539 80.6261636 28.8034539 82.6225977 28.03 83.4768199 27.6466164 84.2392067 27.0779114 84.856875 26.3633333 85.5006794 25.6077104 85.9947373 24.7314844 86.3116016 23.7833333 86.6702792 22.7016464 86.8456686 21.5653308 86.8302148 20.4233333 86.8454023 19.2862485 86.6722632 18.1547304 86.318125 17.0766667zM79.4358984 25.9133333C76.6666992 25.9133333 75.2706836 23.5166667 75.2706836 20.56 75.2706836 17.6033333 76.6503906 15.2066667 79.4358984 15.2066667 82.2214062 15.2066667 83.6011133 17.6033333 83.6011133 20.56 83.6011133 23.5166667 82.1953125 25.9133333 79.4358984 25.9133333z"/>
  </g>
</svg>
